<svg width="341" height="279" viewBox="0 0 341 279" fill="none" xmlns="http://www.w3.org/2000/svg">
<path fill-rule="evenodd" clip-rule="evenodd" d="M158.355 3.45747C143.295 8.40077 118.524 14.3279 104.93 16.2415C98.4154 17.1583 83.1955 18.3613 71.1088 18.9138C59.0211 19.4663 48.6484 20.3023 48.0567 20.7715C47.2294 21.4271 46.9782 29.56 46.9688 56.1032C46.961 75.0679 46.6712 90.9865 46.3237 91.4788C45.9763 91.9712 44.1436 92.8365 42.2515 93.4018C33.3537 96.0587 29.9696 96.954 26.9965 97.4378C23.2846 98.0418 21.2678 100.647 22.9466 102.668C24.3553 104.363 69.7035 104.515 70.7966 102.828C71.1793 102.238 71.4923 88.2205 71.4923 71.6798V41.6059L76.2225 41.3747C102.119 40.1082 134.105 34.3563 160.362 26.2424L170.11 23.2307L177.132 25.3565C205.472 33.9379 245.429 41.1763 264.458 41.1763C267.789 41.1763 269.714 41.5526 269.954 42.2503C270.157 42.8415 270.134 56.7185 269.904 73.0882C269.501 101.669 269.549 102.881 271.111 103.592C272.006 103.999 282.988 104.138 295.517 103.902C316.568 103.505 318.32 103.355 318.594 101.927C319.062 99.4931 317.274 98.0797 312.458 97.0769C310.005 96.5656 305.483 95.3283 302.409 94.3264C299.334 93.3237 296.335 92.3742 295.743 92.2152C294.907 91.9901 294.668 84.4175 294.668 58.0142C294.668 39.3632 294.323 23.1937 293.899 22.0819C293.137 20.0772 292.954 20.0514 271.986 18.9971C249.603 17.8715 233.895 16.2733 223.286 14.0409C210.377 11.3248 193.383 6.8017 183.336 3.40592C177.682 1.49493 172.07 -0.0371223 170.865 0.000684985C169.661 0.0393515 164.031 1.5946 158.355 3.45747ZM186.026 42.9996C183.6 44.4096 181.145 51.074 181.145 56.2545C181.145 59.9467 180.81 61.0577 179.482 61.7683C177.042 63.0727 177.042 63.0718 177.163 57.8604C177.261 53.6355 176.996 52.8226 174.938 51.0517C170.782 47.4746 157.987 47.0338 154.326 50.3402C152.742 51.7717 152.636 52.5494 153.178 58.7652C153.507 62.5313 154.334 66.691 155.016 68.01C156.609 71.0861 155.331 73.828 152.304 73.828C150.193 73.828 146.744 76.4917 146.744 78.1217C146.744 78.5934 145.323 80.5508 143.585 82.4721C140.96 85.3764 140.361 86.7503 140.04 90.6187C139.542 96.6266 138.553 97.3656 134.489 94.7681C131.746 93.0143 131.264 92.2461 131.264 89.6254C131.264 87.2676 130.578 85.8593 128.34 83.6235C124.42 79.707 120.512 79.6245 116.244 83.3692C113.676 85.6213 113.203 86.5922 113.203 89.622C113.203 91.5948 113.783 94.036 114.492 95.0465C115.812 96.9291 122.308 99.8746 124.47 99.5713C126.733 99.2534 127.518 99.6091 132.124 103.043C137.871 107.328 142.982 107.824 145.708 104.361C147.639 101.908 148.464 102.329 148.464 105.764C148.464 107.103 149.194 108.927 150.086 109.818C152.68 112.41 161.284 115.253 167.942 115.718C173.746 116.122 174.198 116.022 176.034 113.912L177.978 111.678L179.964 113.82C181.697 115.688 182.421 115.889 185.633 115.397C192.809 114.299 199.497 111.255 201.622 108.121C202.715 106.51 206.134 103.514 209.222 101.465L214.834 97.7394L219.073 99.561C222.65 101.098 223.839 101.242 226.677 100.479C228.533 99.9795 230.985 98.4517 232.146 97.0734C239.703 88.102 230.763 76.0242 219.457 79.9296C216.257 81.0346 214.066 83.7619 211.925 89.3066C211.788 89.6615 210.128 90.208 208.236 90.5216L204.796 91.0922V83.199C204.796 75.47 204.743 75.2681 202.292 73.4929C200.915 72.4953 198.787 70.8412 197.562 69.8161L195.336 67.9532L197.288 65.5198C200.553 61.4513 202.646 55.9151 202.646 51.3498C202.646 47.753 202.239 46.6523 200.132 44.5471C197.92 42.3371 197.017 42.0389 192.607 42.0613C189.85 42.0759 186.889 42.4978 186.026 42.9996ZM167.234 53.6277C167.496 53.8898 166.873 53.9766 165.85 53.8202C164.826 53.6638 163.733 53.2806 163.42 52.9687C163.108 52.6559 163.731 52.5691 164.805 52.7762C165.879 52.9833 166.972 53.3665 167.234 53.6277ZM197.459 55.354C197.459 55.8266 197.084 55.6332 196.626 54.9244C196.167 54.2155 195.792 53.2488 195.792 52.7762C195.792 52.3036 196.167 52.497 196.626 53.2058C197.084 53.9147 197.459 54.8814 197.459 55.354ZM171.645 96.7074C172.613 98.8942 173.405 101.192 173.405 101.814C173.405 104.028 169.759 109.144 168.372 108.877C166.381 108.494 164.685 104.748 165.124 101.706C165.645 98.0908 167.972 92.7316 169.021 92.7316C169.496 92.7316 170.676 94.5206 171.645 96.7074ZM180.993 108.771C180.84 109.559 180.262 110.355 179.708 110.539C179.067 110.752 178.869 110.231 179.163 109.106C179.712 107.006 181.396 106.698 180.993 108.771ZM9.88113 116.712C7.98564 118.242 7.82224 119.086 7.4206 129.38L6.99059 140.408L4.41912 140.851C0.825947 141.47 -1.09792 145.401 0.659963 148.531C1.40732 149.86 2.89774 150.898 4.44148 151.164L6.99059 151.603L7.4206 162.631C7.82224 172.925 7.98564 173.769 9.88113 175.299C12.8878 177.728 17.2188 177.443 19.399 174.674L21.1818 172.41L23.4489 174.674C26.5191 177.742 30.9053 177.788 32.8816 174.773L34.3023 172.607L37.1447 174.773C40.7147 177.494 43.6293 177.52 46.7185 174.862L49.1317 172.785L48.8548 146.292C48.6063 122.562 48.4179 119.574 47.0496 117.65C44.743 114.407 40.9503 114.38 37.3038 117.579L34.3368 120.182L33.3778 118.081C31.5907 114.161 24.5247 114.177 22.7333 118.104C21.7641 120.23 20.3209 120.986 20.3209 119.369C20.3209 117.622 16.8043 115.072 14.3963 115.072C13.0297 115.072 10.9974 115.81 9.88113 116.712ZM295.339 115.987C292.633 117.562 292.133 122.751 292.259 148.013C292.372 170.951 292.502 172.936 294.017 174.861C296.264 177.714 300.866 177.699 303.737 174.829C304.898 173.669 305.849 172.259 305.849 171.696C305.849 171.131 306.733 171.981 307.814 173.583C310.852 178.088 315.847 178.062 318.607 173.528L320.132 171.024L321.725 173.981C323.095 176.521 323.763 176.939 326.463 176.939C329.952 176.939 333.074 174.641 333.792 171.544C334.035 170.494 334.33 165.625 334.447 160.724L334.659 151.812L337.669 150.842C340.331 149.985 340.711 149.492 340.95 146.59C341.279 142.599 339.986 140.85 336.705 140.85H334.229V131.009C334.229 125.596 333.799 120.225 333.275 119.074C331.096 114.299 324.216 113.972 321.452 118.514L319.981 120.931L318.562 118.462C315.68 113.445 308.961 114.485 306.972 120.257C306.015 123.034 305.942 123.08 305.897 120.935C305.806 116.62 299.404 113.619 295.339 115.987ZM76.0952 122.898C65.6579 124.019 60.4944 130.926 58.5662 146.345C58.0218 150.699 58.1912 151.551 60.2123 154.602C61.4516 156.472 63.3995 158.238 64.5416 158.524C65.6837 158.81 72.9707 158.914 80.735 158.754C94.6441 158.469 94.8979 158.43 97.9828 156.077C102.609 152.549 105.232 148.685 107.601 141.909C109.629 136.109 109.664 135.67 108.414 131.466C107.401 128.058 106.397 126.613 103.921 124.999C101.102 123.162 99.5876 122.891 90.8403 122.649C85.3989 122.499 78.7638 122.611 76.0952 122.898ZM117.759 122.977C115.698 123.972 112.17 133.788 110.718 142.568C110.288 145.168 109.117 150.113 108.117 153.558C106.758 158.237 106.525 160.244 107.196 161.495C108.515 163.96 111.851 164.523 113.868 162.621C114.788 161.752 116.917 159.989 118.598 158.702C120.39 157.331 122.093 155.018 122.714 153.117C123.297 151.332 124.201 149.588 124.723 149.241C126.037 148.368 140.032 148.443 141.432 149.33C142.229 149.835 142.393 150.99 141.979 153.193C141.181 157.445 142.54 158.894 147.322 158.894C154.681 158.894 158.353 154.698 156.733 148.142C156.442 146.967 155.965 145.03 155.671 143.838C155.285 142.275 155.793 140.725 157.491 138.277C160.348 134.159 159.979 130.183 156.365 126.142C154.189 123.709 153.483 123.491 145.447 122.774C133.943 121.748 120.095 121.849 117.759 122.977ZM167.88 123.951C166.662 125.169 165.672 127.052 165.68 128.137C165.696 130.214 161.203 149.634 159.13 156.447C158.461 158.645 158.153 161.066 158.444 161.825C159.278 163.996 162.989 164.495 166.01 162.843C172.567 159.254 173.169 158.038 178.17 138.272C181.547 124.931 181.027 122.969 173.9 122.166C170.644 121.799 169.777 122.056 167.88 123.951ZM193.402 124.092C186.641 127.542 183.222 132.042 181.505 139.754C179.556 148.504 180.185 153.406 183.654 156.504L186.333 158.894H200.974C213.769 158.894 216.027 158.684 218.887 157.227C222.715 155.275 227.587 150.04 227.587 147.876C227.587 147.047 228.411 144.837 229.419 142.965C230.634 140.706 231.286 137.867 231.354 134.528C231.451 129.782 231.285 129.349 228.447 126.937C224.006 123.164 222.29 122.738 209.538 122.242C198.2 121.8 197.806 121.846 193.402 124.092ZM239.918 123.216C237.518 124.241 237.087 124.966 236.244 129.391C235.719 132.149 234.86 135.952 234.335 137.843C231.973 146.36 230.824 151.982 230.439 156.927C230.04 162.039 230.112 162.285 232.152 162.796C237.061 164.028 243.12 158.162 246.043 149.353C247.021 146.405 248.218 143.861 248.701 143.699C249.185 143.539 253.374 146.891 258.012 151.151C265.847 158.348 266.698 158.894 270.071 158.894C272.066 158.894 274.319 158.411 275.077 157.82C276.784 156.489 283.488 132.061 283.488 127.171C283.488 124.094 283.174 123.502 281.123 122.711C278.248 121.604 272.505 122.241 270.899 123.845C270.254 124.489 269.379 127.778 268.955 131.154C267.668 141.401 267.032 141.461 257.999 132.198C248.975 122.945 245.082 121.011 239.918 123.216ZM145.024 135.394C145.024 136.382 143.461 136.569 136.85 136.37C127.335 136.084 125.875 134.611 134.476 133.976C141.898 133.428 145.024 133.848 145.024 135.394ZM93.8813 135.05C94.1032 135.641 93.5786 138.615 92.7151 141.659C90.793 148.434 89.5399 149.036 79.1603 148.173C72.7402 147.638 71.9223 147.379 71.9223 145.879C71.9223 143.38 73.7628 136.287 74.732 135.05C75.9137 133.541 93.3137 133.541 93.8813 135.05ZM216.075 135.212C216.882 137.312 214.675 145.951 213.119 146.781C212.325 147.206 207.709 147.498 202.861 147.43C194.39 147.312 194.046 147.234 194.046 145.419C194.046 144.38 194.389 143.317 194.808 143.058C195.227 142.8 195.818 141.268 196.121 139.657C197.002 134.962 198.497 134.353 209.768 134.105C214.137 134.009 215.719 134.286 216.075 135.212ZM306.967 152.313C307.21 152.947 307.064 154.01 306.642 154.676C306.083 155.557 305.871 155.243 305.862 153.524C305.848 150.958 306.269 150.496 306.967 152.313ZM146.099 166.653C145.035 167.081 144.164 168.043 144.164 168.79C144.164 171.018 146.694 175.22 148.034 175.22C149.485 175.22 151.904 170.95 151.904 168.389C151.904 167.42 151.549 166.628 151.115 166.628C150.681 166.628 149.809 166.458 149.18 166.252C148.55 166.045 147.164 166.226 146.099 166.653ZM204.151 166.696C201.204 168.411 203.137 174.474 206.948 175.469C211.31 176.61 212.371 168.198 208.071 166.565C205.6 165.627 206.014 165.613 204.151 166.696ZM110.652 169.138C109.265 172.482 109.799 174.732 112.058 175.054C114.121 175.35 117.504 172.257 117.504 170.074C117.504 166.082 112.218 165.359 110.652 169.138ZM128.512 168.81C127.182 171.727 128.526 175.65 130.855 175.65C132.094 175.65 132.763 174.803 133.327 172.522C133.753 170.803 133.862 168.772 133.57 168.011C132.739 165.848 129.639 166.338 128.512 168.81ZM163.045 168.88C161.534 172.851 163.764 174.641 171.248 175.462C172.568 175.607 173.144 174.919 173.754 172.471C174.831 168.155 173.647 166.946 168.223 166.823C164.319 166.733 163.781 166.948 163.045 168.88ZM184.922 168.839C184.042 172.346 185.862 175.386 188.647 175.062C190.524 174.843 191.09 174.223 191.57 171.86C192.406 167.74 191.729 166.628 188.38 166.628C185.979 166.628 185.382 167.01 184.922 168.839ZM223 167.201C222.684 167.515 222.426 168.86 222.426 170.188C222.426 172.886 225.587 175.562 228.189 175.069C230.045 174.718 230.691 170.931 229.329 168.388C228.41 166.673 224.299 165.902 223 167.201ZM64.0402 168.924C62.2376 169.401 61.535 171.143 62.5094 172.721C63.108 173.69 67.1114 173.988 82.5651 174.217C104.58 174.542 108.202 173.783 104.112 169.696C102.96 168.546 100.009 168.361 84.1166 168.446C73.8617 168.501 64.828 168.716 64.0402 168.924ZM240.987 169.477C240.136 170.099 239.584 171.355 239.759 172.27C240.062 173.841 241.079 173.945 258.559 174.182C279.668 174.469 282.628 174.173 282.628 171.775C282.628 170.867 281.88 169.725 280.965 169.236C278.36 167.843 242.932 168.057 240.987 169.477ZM232.286 182.145C231.967 182.661 230.663 182.821 229.275 182.517C227.929 182.221 226.056 182.392 225.113 182.897C224 183.491 222.662 183.534 221.297 183.015C219.778 182.438 218.693 182.568 217.386 183.482C216.046 184.419 215.144 184.517 213.911 183.858C212.077 182.878 210.309 182.818 187.165 182.953C178.415 183.004 170.868 183.009 170.395 182.965C169.922 182.92 166.687 182.78 163.206 182.655C158.026 182.466 156.493 182.726 154.767 184.083C152.675 185.726 152.643 185.726 150.958 183.918C149.207 182.04 147.183 181.549 146.402 182.812C145.884 183.649 125.079 183.391 121.577 182.504C120.134 182.139 118.714 182.307 117.96 182.931C117.277 183.497 116.277 183.688 115.737 183.355C114.036 182.304 105.17 182.127 103.973 183.119C103.142 183.809 102.258 183.804 100.718 183.103C97.7789 181.765 96.255 182.595 95.0707 186.18C94.2073 188.795 94.2623 189.406 95.4423 190.268C97.0557 191.446 166.448 191.796 168.329 190.634C168.942 190.256 170.05 190.273 170.792 190.67C172.318 191.485 183.14 191.882 199.636 191.727C208.831 191.64 220.911 191.904 227.587 192.339C228.296 192.386 231.049 192.182 233.704 191.888C237.449 191.473 239.027 191.678 240.741 192.8C243.516 194.615 245.81 193.584 247.37 189.822C249.473 184.749 245.746 181.172 239.629 182.395C238.246 182.671 236.883 182.523 236.6 182.066C235.911 180.953 232.99 181.006 232.286 182.145ZM56.0876 198.687C53.486 200.59 54.9472 202.203 60.8556 203.95C63.8682 204.841 69.5057 206.619 73.3835 207.901L80.4357 210.233L94.4541 224.322C113.543 243.505 131.106 257.297 153.625 270.788C167.322 278.995 169.78 279.913 173.987 278.393C181.145 275.807 206.779 258.971 221.996 246.861C227.2 242.72 238.241 232.65 246.535 224.484L261.612 209.636L270.185 207.11C274.9 205.721 280.46 204.256 282.54 203.856C286.562 203.08 288.406 201.27 287.522 198.967C287.041 197.715 284.519 197.561 264.475 197.561H241.97L230.263 208.973C215.016 223.835 201.361 235.145 188.885 243.24C171.699 254.393 171.409 254.544 169.04 253.651C166.438 252.67 145.373 238.717 137.714 232.901C126.143 224.115 118.739 217.517 109.775 208.004L100.339 197.991L79.0356 197.736C61.8205 197.531 57.4163 197.714 56.0876 198.687ZM169.371 200.695C168.807 200.921 167.711 203.02 166.934 205.357C165.296 210.284 163.824 211.309 158.384 211.309C151.827 211.309 152.147 214.8 159.026 218.307C161.827 219.734 162.297 220.337 161.818 221.895C158.84 231.588 159.027 233.216 162.963 231.845C164.357 231.36 166.176 230.214 167.005 229.298C169.014 227.08 170.97 227.202 174.777 229.783C180.501 233.664 183.186 232.122 180.769 226.342C178.8 221.633 179.085 220.251 182.459 218.169C184.126 217.139 186.089 215.699 186.82 214.969C188.912 212.878 186.425 211.102 180.743 210.631C175.476 210.195 175.268 210.022 173.405 204.509C172.116 200.694 171.295 199.919 169.371 200.695Z" fill="white"/>
</svg>
